# xmcd
#
# Track frame offsets:
#	150
#	23297
#	41109
#	60553
#	75478
#	98081
#	120066
#	142884
#	158076
#	173545
#
# Disc length: 2558 seconds
#
# Revision: 1
# Processed by: cddbd v1.5.2PL0 Copyright (c) Steve Scherf et al.
# Submitted via: audiograbber 1.83.01
#
DISCID=6109fc0a
DTITLE=HARMONICADAVE - BOX FULL OF BLUES
DYEAR=2014
DGENRE=Blues
TTITLE0=KILLER HARP MAN
TTITLE1=MOONSHINE CHEVROLET
TTITLE2=JET (DANCING QUEEN)
TTITLE3=DON'T GO DOWN
TTITLE4=MONEY GONE BLUES
TTITLE5=BUSTED
TTITLE6=DEVIL'S DOOR
TTITLE7=HOBO HERO
TTITLE8=BRIGHT CITY LIGHTS
TTITLE9=SHOULD BE SO EASY
EXTD=
EXTT0=
EXTT1=
EXTT2=
EXTT3=
EXTT4=
EXTT5=
EXTT6=
EXTT7=
EXTT8=
EXTT9=
PLAYORDER=
